<?xml version="1.0" encoding="utf-8"?>
<!-- Generator: Adobe Illustrator 28.1.0, SVG Export Plug-In . SVG Version: 6.00 Build 0)  -->
<svg version="1.1" id="Capa_1" xmlns="http://www.w3.org/2000/svg" xmlns:xlink="http://www.w3.org/1999/xlink" x="0px" y="0px"
	 viewBox="0 0 535.18 161.5" style="enable-background:new 0 0 535.18 161.5;" xml:space="preserve">
<style type="text/css">
	.st0{fill:#1D1D1B;}
</style>
<g>
	<g>
		<path class="st0" d="M267.34,71.96c0.88,0,1.12,0.1,1.16,0.35c0.07,0.56,0.17,1.89,0.24,2.38c0.07,0.35,0,0.63-0.14,0.63
			c-0.18,0-0.28-0.32-0.46-0.7c-0.6-1.33-1.33-1.71-2.56-1.82c-1.15-0.1-2.77-0.1-6.13-0.1c-0.28,0-0.56,0.49-0.56,0.67
			c0,0.98-0.07,4.13,0,9.07c0,0.35,0.25,0.46,0.31,0.46c3.43,0,5.53-0.07,6.09-0.1c0.42-0.04,0.98-0.07,1.54-1.26
			c0.18-0.38,0.28-0.49,0.35-0.49c0.14,0,0.21,0.11,0.18,0.49c-0.04,0.42-0.18,1.44-0.18,2.14c0,0.63,0.14,1.05,0.14,1.54
			c0,0.46-0.07,0.56-0.21,0.56c-0.14,0-0.28-0.21-0.49-0.77c-0.21-0.6-0.56-1.02-0.98-1.12c-0.52-0.11-0.77-0.18-6.44-0.18
			c-0.07,0-0.35,0.32-0.35,0.46c-0.03,0.56,0,6.13,0.07,7.7c0.07,1.4,0.21,1.61,1.85,2c0.31,0.07,0.49,0.17,0.49,0.32
			c0,0.21-0.35,0.21-0.74,0.21c-0.35,0-1.79-0.21-3.19-0.21c-1.19,0-2.14,0.14-2.38,0.14s-0.52-0.07-0.52-0.21s0.14-0.25,0.63-0.35
			c1.37-0.32,1.51-0.53,1.58-1.89c0.1-1.16,0.1-5.74,0.1-9.59c0-3.75,0-5.67-0.1-7.84c-0.07-1.26-0.1-1.61-1.44-1.93
			c-0.31-0.07-0.56-0.17-0.56-0.35c0-0.14,0.28-0.21,0.52-0.21c0.31,0,2.38,0.14,3.92,0.14C262.48,72.06,266.01,71.96,267.34,71.96z
			"/>
		<path class="st0" d="M294.26,83.37c0,5.67-3.85,9.17-6.55,10.36c-1.4,0.63-2.98,1.05-4.52,1.05c-6.23,0-11.41-5.57-11.41-11.97
			c0-3.5,1.15-6.58,4.52-9.14c1.79-1.4,4.52-2.24,6.76-2.24C288.97,71.43,294.26,76.86,294.26,83.37z M276.86,74.58
			c-1.96,2.28-2.62,5.53-2.62,8.26c0,2.49,1.05,5.36,2.56,7.39c2.38,3.19,5.04,3.89,7.04,3.89c1.37,0,2.59-0.38,3.78-1.26
			c1.93-1.44,4.24-4.69,4.24-9.45c0-2.98-1.19-6.27-3.29-8.65c-1.37-1.54-3.29-2.8-6.2-2.8C280.4,71.96,278.05,73.22,276.86,74.58z"
			/>
		<path class="st0" d="M311.86,72.03c0.95,0,1.61-0.07,2.21-0.38c0.14-0.1,0.25-0.1,0.28-0.04c0.04,0.11,0.04,0.18,0,0.42
			c-0.1,0.42-0.1,1.26-0.1,2.52c0,0.53-0.14,0.81-0.28,0.81c-0.14,0-0.21-0.32-0.25-0.53c-0.07-0.63-0.31-1.29-0.6-1.58
			c-0.31-0.28-0.7-0.35-3.47-0.35c-0.94,0-2.8,0-3.4,0.07c-0.17,0.04-0.21,0.28-0.21,0.49c0,1.26-0.03,9.21-0.03,10.61
			c-0.04,2,0.1,6.76,0.21,7.84c0.14,1.29,0.49,1.5,1.65,1.85c0.42,0.11,0.6,0.18,0.6,0.35c0,0.21-0.25,0.25-0.7,0.25
			c-0.84,0-1.68-0.21-2.94-0.21c-1.54,0-2.59,0.21-3.15,0.21c-0.46,0-0.63-0.14-0.63-0.32c0-0.14,0.35-0.25,0.73-0.31
			c1.65-0.21,1.86-0.81,1.96-2.42c0.25-3.33,0.25-17.4,0.17-17.92c-0.03-0.31-0.14-0.42-0.24-0.46c-0.21-0.03-1.02-0.1-2.63-0.1
			c-1.58,0-2.45,0.07-3.26,0.17c-0.63,0.11-1.05,0.53-1.54,1.89c-0.14,0.35-0.35,0.56-0.46,0.56c-0.14,0-0.14-0.31-0.1-0.52
			c0.17-1.02,0.49-2.07,0.49-2.94c0-0.32,0-0.46,0.14-0.53c0.07-0.04,0.21,0.04,0.28,0.14c0.14,0.18,0.7,0.32,1.15,0.35
			c0.6,0.04,3.92,0.1,7.53,0.1L311.86,72.03z"/>
		<path class="st0" d="M338.29,83.37c0,5.67-3.85,9.17-6.55,10.36c-1.4,0.63-2.98,1.05-4.52,1.05c-6.23,0-11.41-5.57-11.41-11.97
			c0-3.5,1.15-6.58,4.52-9.14c1.79-1.4,4.52-2.24,6.76-2.24C333,71.43,338.29,76.86,338.29,83.37z M320.89,74.58
			c-1.96,2.28-2.62,5.53-2.62,8.26c0,2.49,1.05,5.36,2.56,7.39c2.38,3.19,5.04,3.89,7.04,3.89c1.37,0,2.59-0.38,3.78-1.26
			c1.93-1.44,4.24-4.69,4.24-9.45c0-2.98-1.19-6.27-3.29-8.65c-1.37-1.54-3.29-2.8-6.2-2.8C324.43,71.96,322.08,73.22,320.89,74.58z
			"/>
		<path class="st0" d="M358.9,72.1c0.84,0.25,2.03,0.7,2.38,0.88c0.21,0.11,0.35,0.46,0.35,0.84c0,0.21,0.21,1.54,0.28,1.96
			c0.1,0.46-0.04,0.67-0.14,0.67c-0.17,0-0.21-0.07-0.42-0.56c-1.05-2.52-3.01-3.92-6.72-3.92c-2.66,0-5.25,1.16-6.86,2.87
			c-1.68,1.82-3.01,4.66-3.01,8.51c0,4.13,2.38,7.32,4.24,8.82c1.68,1.33,3.82,2.06,5.71,2.06c1.82,0,3.5-0.73,4.38-1.61
			c0.46-0.53,0.46-1.09,0.52-1.93c0.07-0.7,0.14-2.83,0.04-3.92c-0.1-1.23-0.52-1.61-2.07-1.82c-0.35-0.04-0.59-0.14-0.59-0.28
			c0-0.1,0.14-0.25,0.84-0.21c0.56,0,1.47,0.11,2.7,0.11c1.26,0,1.75-0.07,2.03-0.07c0.31,0,0.56,0.07,0.56,0.21
			c0,0.17-0.42,0.28-0.67,0.35c-0.49,0.11-0.7,0.35-0.7,2.21c0,1.47,0.18,3.99,0.18,4.48c0,0.45,0.03,0.7-0.25,0.84l-1.65,0.84
			c-1.58,0.74-3.26,1.37-5.18,1.37c-3.82,0-6.65-1.29-8.89-3.29c-2.45-2.07-3.75-4.94-3.75-8.37c0-3.61,1.4-6.65,4.69-9.17
			c1.61-1.19,3.71-2.52,8.12-2.52C356.73,71.43,358.1,71.92,358.9,72.1z"/>
		<path class="st0" d="M377.7,73.12c1.51,1.08,2.17,2.66,2.17,4.2c0,2.34-1.19,3.36-2,3.99c-0.59,0.53-1.58,0.95-2.13,1.16
			c-0.14,0.07-0.07,0.32,0.07,0.67c0.7,1.37,2.98,4.94,3.96,6.27c1.08,1.47,1.82,2.35,2.56,3.08c1.12,1.12,2.14,1.44,2.77,1.44
			c0.28,0,0.46,0.1,0.46,0.21c0,0.07-0.14,0.17-0.42,0.28c-0.28,0.1-0.84,0.14-1.33,0.14c-2.14,0-3.54-1.16-4.83-2.77
			c-1.79-2.27-4.73-7.11-5.22-7.7c-0.35-0.39-0.67-0.7-1.08-0.81c-0.35-0.1-0.84-0.17-1.75-0.14c-0.18,0-0.32,0.14-0.35,0.28
			c-0.07,0.35-0.1,4.83-0.07,6.23c0.04,1.61,0.18,2.87,0.28,3.19c0.14,0.42,0.38,0.77,1.65,0.98c0.39,0.07,0.52,0.14,0.52,0.28
			s-0.28,0.25-0.7,0.25c-0.74,0-1.4-0.17-2.59-0.17c-1.3,0-2.31,0.17-2.98,0.17c-0.35,0-0.59-0.07-0.59-0.25
			c0-0.14,0.25-0.21,0.7-0.32c1.08-0.21,1.47-0.52,1.57-2c0.1-2,0.18-4.62,0.18-9.7c0-4.9-0.14-6.76-0.21-7.88
			c-0.07-1.02-0.14-1.5-1.61-1.75c-0.31-0.07-0.6-0.14-0.6-0.32c0-0.11,0.18-0.21,0.63-0.21c0.49,0,1.33,0.14,2.59,0.14
			c1.29,0,2.59-0.17,3.75-0.17C375.18,71.89,376.54,72.27,377.7,73.12z M370.73,72.66c-0.07,0.04-0.17,0.04-0.21,0.59
			c-0.04,0.7-0.04,8.12-0.04,8.68c0,0.53,0.14,0.63,0.25,0.63c0.21,0.04,0.67,0.04,0.95,0.04c1.02,0,3.19-0.28,3.89-0.73
			c0.98-0.7,2.1-2.14,2.1-4.03c0-1.86-0.56-3.19-1.47-4.03c-0.94-0.88-2.21-1.4-4.31-1.4C371.43,72.41,370.91,72.55,370.73,72.66z"
			/>
		<path class="st0" d="M396.84,71.82c0.14,0.91,0.49,1.79,0.98,3.01c2.7,7.21,4.17,10.71,6.51,16.17c0.91,2.17,1.23,2.49,2.14,2.7
			c0.38,0.07,0.59,0.21,0.59,0.31c0,0.18-0.31,0.25-0.63,0.25c-0.56,0-0.94-0.1-2.84-0.1c-0.94,0-2.42,0.14-3.15,0.14
			c-0.35,0-0.56-0.1-0.56-0.25c0-0.14,0.35-0.28,0.67-0.31c1.58-0.21,1.61-0.91,1.61-1.58c0-0.42-1.26-3.64-2.56-7.04
			c-0.1-0.21-0.31-0.42-0.42-0.42c-1.3,0.1-6.09,0.07-6.86,0.1c-0.1,0-0.38,0.46-0.49,0.7c-0.31,0.7-1.36,3.36-1.92,5.25
			c-0.42,1.43-0.39,2.07,0,2.45c0.28,0.28,0.77,0.42,1.44,0.56c0.35,0.07,0.52,0.21,0.52,0.32c0,0.17-0.31,0.25-0.67,0.25
			c-0.67,0-2.17-0.17-3.47-0.17c-0.88,0-1.47,0.17-2.21,0.17c-0.39,0-0.6-0.07-0.6-0.25s0.35-0.25,0.7-0.32
			c1.61-0.31,1.82-0.56,3.19-3.54c0.95-2,4.1-9.8,6.27-15.19c0.18-0.46,0.21-0.7,0.21-1.01c0-0.14,0.07-0.35,0.1-0.39
			c0.21-0.25,0.84-0.88,0.98-1.75c0.04-0.14,0.07-0.35,0.21-0.35C396.7,71.54,396.77,71.61,396.84,71.82z M398.84,83.27
			c-1.58-4.41-2.42-6.27-3.01-7.7c-0.1-0.25-0.18-0.14-0.28,0.1c-0.98,2.38-2.38,6.27-2.87,7.74c-0.04,0-0.07,0.31,0.1,0.31
			c0.56,0.04,1.47,0.04,2.8,0.04c1.19,0,2.84,0,3.26-0.14C398.8,83.62,398.87,83.41,398.84,83.27z M400.1,67.37
			c0.42,0.14,0.67,0.35,0.67,0.56c0,0.17-0.35,0.35-0.7,0.63c-1.29,0.84-2.7,1.71-3.89,2.31c-0.35,0.17-0.67,0.25-0.67,0.07
			c0-0.07,0.07-0.17,0.24-0.31c1.02-0.98,2.24-2.14,3.5-3.08C399.54,67.37,399.89,67.27,400.1,67.37z"/>
		<path class="st0" d="M422.15,71.96c0.88,0,1.12,0.1,1.16,0.35c0.07,0.56,0.17,1.89,0.24,2.38c0.07,0.35,0,0.63-0.14,0.63
			c-0.18,0-0.28-0.32-0.46-0.7c-0.6-1.33-1.33-1.71-2.56-1.82c-1.15-0.1-2.77-0.1-6.13-0.1c-0.28,0-0.56,0.49-0.56,0.67
			c0,0.98-0.07,4.13,0,9.07c0,0.35,0.25,0.46,0.31,0.46c3.43,0,5.53-0.07,6.09-0.1c0.42-0.04,0.98-0.07,1.54-1.26
			c0.18-0.38,0.28-0.49,0.35-0.49c0.14,0,0.21,0.11,0.18,0.49c-0.04,0.42-0.18,1.44-0.18,2.14c0,0.63,0.14,1.05,0.14,1.54
			c0,0.46-0.07,0.56-0.21,0.56c-0.14,0-0.28-0.21-0.49-0.77c-0.21-0.6-0.56-1.02-0.98-1.12c-0.52-0.11-0.77-0.18-6.44-0.18
			c-0.07,0-0.35,0.32-0.35,0.46c-0.03,0.56,0,6.13,0.07,7.7c0.07,1.4,0.21,1.61,1.85,2c0.31,0.07,0.49,0.17,0.49,0.32
			c0,0.21-0.35,0.21-0.74,0.21c-0.35,0-1.79-0.21-3.19-0.21c-1.19,0-2.14,0.14-2.38,0.14s-0.52-0.07-0.52-0.21s0.14-0.25,0.63-0.35
			c1.37-0.32,1.51-0.53,1.58-1.89c0.1-1.16,0.1-5.74,0.1-9.59c0-3.75,0-5.67-0.1-7.84c-0.07-1.26-0.1-1.61-1.44-1.93
			c-0.31-0.07-0.56-0.17-0.56-0.35c0-0.14,0.28-0.21,0.52-0.21c0.31,0,2.38,0.14,3.92,0.14C417.28,72.06,420.82,71.96,422.15,71.96z
			"/>
		<path class="st0" d="M426.2,71.92c0.98,0,1.65,0.14,2.73,0.14c0.98,0,1.96-0.14,2.73-0.14c0.25,0,0.49,0.07,0.49,0.14
			c0,0.14-0.14,0.28-0.52,0.32c-1.37,0.25-1.51,0.7-1.58,2.17c-0.1,1.86-0.07,5.92-0.07,8.19c0,5.15,0.1,8.19,0.17,9.17
			c0.1,1.33,0.28,1.5,1.33,1.79c0.49,0.1,0.6,0.21,0.6,0.35c0,0.17-0.25,0.21-0.67,0.21c-0.31,0-1.33-0.1-2.17-0.1
			c-1.5,0-2.56,0.17-3.19,0.17c-0.31,0-0.53-0.07-0.53-0.25c0-0.1,0.21-0.21,0.81-0.35c1.3-0.28,1.47-0.84,1.51-2.94
			c0.07-2,0.03-11.94,0.03-13.79c0-1.71-0.1-2.52-0.17-3.04c-0.1-1.16-0.42-1.29-1.65-1.58c-0.25-0.07-0.39-0.14-0.39-0.28
			C425.68,71.99,425.85,71.92,426.2,71.92z"/>
		<path class="st0" d="M454.49,73.29c0.21,0.14,0.31,0.38,0.31,0.56c-0.1,0.84,0.07,2.24,0.07,2.63c0,0.31-0.1,0.56-0.21,0.56
			c-0.14,0-0.25-0.21-0.31-0.46c-0.28-1.19-1.05-2.31-1.65-2.8c-1.29-1.23-3.5-1.82-5.46-1.82c-3.15,0-5.15,1.5-6.51,2.94
			c-1.33,1.43-2.59,4.58-2.59,8.02c0,3.36,1.58,6.65,3.33,8.54c1.75,1.85,4.27,2.59,6.2,2.59c1.96,0,3.26-0.35,4.24-0.95
			c1.36-0.8,2.24-2.03,2.73-3.5c0.14-0.49,0.25-0.63,0.35-0.63c0.14,0,0.21,0.28,0.21,0.53c0,0.59-0.42,2.45-0.49,2.87
			c-0.04,0.14-0.14,0.28-0.28,0.38c-2.1,1.23-4.1,2.03-6.9,2.03c-4.13,0-6.72-1.54-8.96-3.82c-1.4-1.44-2.91-4.73-2.91-7.67
			c0-4.24,1.71-6.97,3.96-9c1.82-1.64,4.83-2.87,7.91-2.87C450.39,71.43,453.37,72.62,454.49,73.29z"/>
		<path class="st0" d="M468.59,71.82c0.14,0.91,0.49,1.79,0.98,3.01c2.7,7.21,4.17,10.71,6.51,16.17c0.91,2.17,1.23,2.49,2.14,2.7
			c0.38,0.07,0.59,0.21,0.59,0.31c0,0.18-0.31,0.25-0.63,0.25c-0.56,0-0.94-0.1-2.84-0.1c-0.94,0-2.42,0.14-3.15,0.14
			c-0.35,0-0.56-0.1-0.56-0.25c0-0.14,0.35-0.28,0.67-0.31c1.58-0.21,1.61-0.91,1.61-1.58c0-0.42-1.26-3.64-2.56-7.04
			c-0.1-0.21-0.31-0.42-0.42-0.42c-1.3,0.1-6.09,0.07-6.86,0.1c-0.1,0-0.38,0.46-0.49,0.7c-0.31,0.7-1.36,3.36-1.92,5.25
			c-0.42,1.43-0.39,2.07,0,2.45c0.28,0.28,0.77,0.42,1.44,0.56c0.35,0.07,0.52,0.21,0.52,0.32c0,0.17-0.31,0.25-0.67,0.25
			c-0.67,0-2.17-0.17-3.47-0.17c-0.88,0-1.47,0.17-2.21,0.17c-0.39,0-0.6-0.07-0.6-0.25s0.35-0.25,0.7-0.32
			c1.61-0.31,1.82-0.56,3.19-3.54c0.95-2,4.1-9.8,6.27-15.19c0.18-0.46,0.21-0.7,0.21-1.01c0-0.14,0.07-0.35,0.1-0.39
			c0.21-0.25,0.84-0.88,0.98-1.75c0.04-0.14,0.07-0.35,0.21-0.35C468.45,71.54,468.52,71.61,468.59,71.82z M470.58,83.27
			c-1.58-4.41-2.42-6.27-3.01-7.7c-0.1-0.25-0.18-0.14-0.28,0.1c-0.98,2.38-2.38,6.27-2.87,7.74c-0.04,0-0.07,0.31,0.1,0.31
			c0.56,0.04,1.47,0.04,2.8,0.04c1.19,0,2.84,0,3.26-0.14C470.55,83.62,470.62,83.41,470.58,83.27z"/>
	</g>
	<g>
		<path d="M73.81,110.03c-3.69,0-6.84-0.56-9.45-1.67c-2.61-1.11-4.59-2.63-5.95-4.55c-1.36-1.92-2.04-4.08-2.04-6.48
			c0-3.52,1.38-7.21,4.15-11.07s6.33-7.38,10.7-10.52c4.37-3.15,9.04-5.49,14.02-7.01c4.75-1.35,9.49-2.02,14.24-2.02
			c2.99,0,5.73,0.31,8.22,0.92c1.32,0.35,2.53,0.86,3.65,1.52c1.11,0.66,2.01,1.47,2.68,2.44c0.67,0.97,1.01,2.09,1.01,3.38
			c0,2.7-1.88,6.09-5.65,10.2c-3.76,4.1-8.37,7.19-13.82,9.27c-1.55,0.53-3,0.96-4.35,1.3c-1.35,0.34-2.6,0.58-3.76,0.73
			c-1.16,0.15-2.22,0.22-3.19,0.22c-0.5,0-0.97-0.02-1.43-0.04c-0.45-0.03-0.89-0.07-1.3-0.13c-0.41-0.06-0.8-0.13-1.16-0.22
			c-0.37-0.09-0.71-0.18-1.03-0.29c-0.32-0.1-0.63-0.21-0.92-0.33c-0.29-0.12-0.56-0.23-0.79-0.35c-0.23-0.12-0.46-0.24-0.68-0.37
			s-0.42-0.26-0.59-0.4s-0.33-0.26-0.46-0.37c-0.13-0.12-0.25-0.23-0.35-0.35c-0.1-0.12-0.2-0.23-0.29-0.35
			c-0.41-0.64-0.62-1.42-0.62-2.33c0-1.35,0.51-2.92,1.52-4.72s2.59-3.58,4.72-5.34c2.14-1.76,4.86-3.31,8.17-4.66l0.09-0.04
			c0.09,0,0.13,0.04,0.13,0.13v0.09c0,0.03-0.02,0.06-0.04,0.09c-0.03,0.03-0.07,0.06-0.13,0.09c-3.22,1.32-5.87,2.83-7.93,4.55
			s-3.59,3.44-4.57,5.16c-0.98,1.73-1.47,3.25-1.47,4.57c0,1.26,0.39,2.21,1.16,2.86c0.78,0.64,1.76,1.08,2.97,1.32
			c1.2,0.23,2.42,0.35,3.65,0.35c2.2,0,4.45-0.23,6.75-0.7c2.3-0.47,4.2-0.98,5.69-1.54c5.36-2.08,9.91-4.91,13.65-8.5
			c3.74-3.59,5.6-6.83,5.6-9.73c0-1.85-0.63-3.31-1.89-4.39c-1.26-1.08-2.9-1.86-4.92-2.33c-2.02-0.47-4.17-0.7-6.46-0.7
			c-4.95,0-10.09,0.78-15.42,2.33c-3.63,1.08-7.17,2.61-10.61,4.59c-3.44,1.98-6.55,4.23-9.32,6.77c-2.77,2.53-4.98,5.19-6.64,7.95
			c-1.66,2.77-2.48,5.46-2.48,8.06c0,2.52,0.74,4.69,2.22,6.53c1.48,1.83,3.52,3.24,6.11,4.24c2.59,1,5.56,1.49,8.9,1.49
			c5.54,0,11.59-1.16,18.17-3.47c6.58-2.31,12.55-5.2,17.91-8.66c5.92-3.93,11.38-8.26,16.39-13.01s9.73-9.54,14.15-14.39
			c4.42-4.85,8.72-9.37,12.88-13.56c-2.84,2.14-5.96,4.32-9.36,6.55c-3.4,2.23-6.78,4.12-10.15,5.67c-3.37,1.55-6.37,2.33-9.01,2.33
			c-2.37,0-4.12-0.75-5.25-2.24c-1.13-1.49-1.69-3.56-1.69-6.2c0-1.35,0.15-2.74,0.44-4.17c0.64-2.75,1.63-5.21,2.94-7.38
			c1.32-2.17,3.13-4.53,5.45-7.08c-6.45-2.49-9.67-5.86-9.67-10.11c0-2.05,0.83-4.15,2.48-6.28c1.65-2.14,4.17-4.01,7.54-5.6
			c3.37-1.6,7.6-2.66,12.7-3.19c0.12,0.03,0.18,0.07,0.18,0.13c-0.03,0.21-0.12,0.31-0.26,0.31c-2.46,0.23-4.68,0.67-6.66,1.3
			c-1.98,0.63-3.79,1.33-5.43,2.09c-3.63,1.67-6.23,3.42-7.78,5.25c-1.55,1.83-2.33,3.79-2.33,5.87c0,2.17,0.88,4.09,2.64,5.78
			c1.76,1.69,4.06,3.05,6.9,4.11c2.7-2.49,5.36-4.67,8-6.53c2.64-1.86,5.93-3.78,9.87-5.76c3.94-1.98,8.5-3.74,13.69-5.3
			c3.78-1.03,7.27-1.54,10.46-1.54c2.23,0,4.06,0.29,5.49,0.86c1.44,0.57,2.15,1.5,2.15,2.79c0,1.99-1.52,4.54-4.57,7.65
			c-1.85,1.82-4.16,3.57-6.94,5.27c-2.78,1.7-5.96,3.11-9.54,4.24c-3.57,1.13-7.49,1.69-11.73,1.69c-2.67,0-5.29-0.21-7.87-0.64
			c-2.58-0.42-5-0.97-7.25-1.65c-3.28,3.43-5.79,6.9-7.51,10.42c-1.73,3.52-2.59,6.58-2.59,9.18c0,2.05,0.55,3.62,1.65,4.7
			c1.1,1.08,2.63,1.63,4.59,1.63c2.14,0,4.56-0.55,7.27-1.65c2.71-1.1,5.49-2.5,8.33-4.22c2.84-1.71,5.57-3.51,8.2-5.38
			c2.62-1.87,4.96-3.62,7.01-5.23c1.35-1.29,2.99-2.73,4.92-4.33c1.93-1.6,3.37-2.64,4.31-3.14l0.18-0.04
			c0.15,0,0.23,0.09,0.26,0.26c0,0.09-0.1,0.23-0.31,0.44l-9.1,7.12c-3.84,3.75-7.83,8.12-11.98,13.1
			c-4.15,4.98-8.72,10.12-13.71,15.42c-5,5.3-10.7,10.33-17.12,15.07c-5.3,3.6-11.61,6.45-18.92,8.55
			c-7.31,2.09-13.92,3.21-19.84,3.36H73.81z M152.83,45c3.05-0.7,5.78-1.55,8.2-2.55c2.42-1,4.54-2.08,6.37-3.25
			c1.83-1.17,3.38-2.36,4.64-3.56c1.26-1.2,2.26-2.36,2.99-3.47c0.73-1.11,1.2-2.12,1.41-3.03c0.06-0.06,0.09-0.31,0.09-0.75
			c0-1.14-0.62-1.98-1.87-2.53c-1.25-0.54-2.88-0.81-4.9-0.81c-3.9,0-7.95,0.74-12.15,2.22c-4.2,1.48-8.27,3.34-12.19,5.58
			c-3.93,2.24-7.47,4.55-10.63,6.92c-1.96,1.44-3.75,2.97-5.36,4.61c3.96,1.17,8.22,1.76,12.79,1.76
			C145.77,46.14,149.31,45.76,152.83,45z"/>
		<path d="M145.9,94.94c-0.13-0.02-0.26-0.04-0.37-0.09c-0.12-0.04-0.22-0.09-0.31-0.15c-0.09-0.06-0.16-0.12-0.22-0.2
			c-0.06-0.07-0.11-0.15-0.15-0.22c-0.04-0.07-0.07-0.16-0.09-0.26c-0.02-0.1-0.02-0.21-0.02-0.33c0-0.53,0.18-1.15,0.53-1.87
			c0.35-0.72,0.76-1.41,1.23-2.07c0.47-0.66,1.05-1.44,1.76-2.35c-0.88,0.85-1.83,1.71-2.86,2.57c-1.03,0.86-2.07,1.68-3.14,2.44
			c-1.07,0.76-2.1,1.38-3.1,1.85c-1,0.47-1.9,0.7-2.72,0.7c-0.88,0-1.53-0.26-1.96-0.79c-0.42-0.53-0.64-1.2-0.64-2.02
			c0-1.61,0.65-3.48,1.96-5.6c1.3-2.12,2.67-3.89,4.11-5.3c2.31-2.17,4.69-3.8,7.14-4.9c2.45-1.1,4.59-1.65,6.44-1.65
			c0.76,0,1.41,0.17,1.93,0.51c0.53,0.34,0.79,0.92,0.79,1.74c0,0.32-0.04,0.67-0.13,1.05c-0.09,0.38-0.26,0.82-0.53,1.32l4.09-4.17
			h2.68c-3.4,3.16-6.19,5.84-8.37,8.04c-2.18,2.2-4.12,4.31-5.82,6.33c-1.7,2.02-2.55,3.46-2.55,4.31c-0.03,0.47,0.26,0.7,0.88,0.7
			c0.7,0,1.57-0.36,2.61-1.08c1.04-0.72,2.17-1.64,3.38-2.77c1.22-1.13,2.45-2.34,3.69-3.63c1.25-1.29,2.42-2.52,3.54-3.69
			c0.03-0.06,0.09-0.09,0.18-0.09c0.12,0.06,0.18,0.13,0.18,0.22c0,0.03-0.03,0.07-0.09,0.13c-1.73,1.88-3.45,3.67-5.16,5.38
			s-3.3,3.14-4.77,4.26c-1.47,1.13-2.68,1.69-3.65,1.69C146.19,94.96,146.04,94.95,145.9,94.94z M141.29,92.54
			c1.83-1.26,3.71-2.78,5.65-4.55c1.93-1.77,3.71-3.49,5.32-5.16c0.29-0.2,1.08-1.04,2.37-2.5c0.41-0.79,0.7-1.46,0.86-2
			c0.16-0.54,0.24-0.97,0.24-1.3c0-0.82-0.26-1.34-0.77-1.56c-0.51-0.22-1.05-0.33-1.6-0.33c-1.26,0-2.64,0.4-4.13,1.21
			c-1.49,0.81-2.94,1.77-4.33,2.88c-1.39,1.11-2.6,2.18-3.63,3.21c-1,1.03-1.9,2.04-2.7,3.03c-0.81,1-1.49,1.95-2.07,2.86
			c-0.57,0.91-1,1.74-1.3,2.48c-0.29,0.75-0.44,1.38-0.44,1.91c0,0.62,0.18,1.05,0.55,1.32c0.37,0.26,0.81,0.4,1.34,0.4
			C137.91,94.43,139.46,93.8,141.29,92.54z"/>
		<path d="M153.38,94.79c-0.31-0.12-0.53-0.28-0.68-0.48c-0.15-0.2-0.22-0.45-0.22-0.75c0-0.62,0.25-1.38,0.75-2.29
			c0.5-0.91,1.15-1.88,1.96-2.92c0.81-1.04,1.69-2.1,2.66-3.19c0.97-1.08,1.95-2.13,2.94-3.14c1-1.01,1.92-1.93,2.77-2.77
			c0.85-0.83,1.54-1.52,2.07-2.04l20.39-20.3h3.08c-11.25,10.84-19.23,18.6-23.95,23.29c-1.41,1.44-2.79,2.85-4.15,4.24
			c-1.36,1.39-2.59,2.7-3.69,3.91c-1.1,1.22-1.98,2.29-2.64,3.23c-0.66,0.94-0.99,1.67-0.99,2.2c0,0.23,0.07,0.42,0.22,0.55
			c0.15,0.13,0.4,0.2,0.75,0.2c0.56,0,1.21-0.22,1.96-0.66s1.57-1.03,2.46-1.78s1.83-1.6,2.81-2.55c0.98-0.95,1.98-1.96,2.99-3.01
			s2.01-2.11,3.01-3.16c0.06-0.06,0.1-0.09,0.13-0.09c0.15,0,0.22,0.07,0.22,0.22l-0.09,0.13c-1.73,1.85-3.44,3.63-5.12,5.34
			c-1.69,1.71-3.26,3.14-4.72,4.28s-2.71,1.71-3.74,1.71C154.07,94.96,153.68,94.9,153.38,94.79z"/>
		<path d="M164.47,90.87c0-1.99,0.67-4.01,2.02-6.04c1.35-2.04,3.06-3.87,5.14-5.52c2.08-1.64,4.28-2.87,6.59-3.69
			c0.59-0.2,1.29-0.42,2.11-0.64c0.82-0.22,1.61-0.33,2.37-0.33c1.96,0.06,2.94,0.81,2.94,2.24c0,0.79-0.28,1.69-0.83,2.7
			c-0.56,1.01-1.3,1.88-2.24,2.61c-1.44,1.05-2.92,1.75-4.46,2.09c-1.54,0.34-2.63,0.51-3.27,0.51c-0.88,0-1.55-0.14-2-0.42
			c-0.45-0.28-0.77-0.62-0.94-1.01s-0.26-0.74-0.26-1.03c0-0.23,0.01-0.41,0.04-0.53c0.03-0.12,0.06-0.23,0.09-0.35
			c-1.47,1.35-2.65,2.64-3.56,3.89c-0.91,1.25-1.57,2.39-1.98,3.43c-0.41,1.04-0.62,1.96-0.62,2.75c0,1.08,0.36,1.84,1.08,2.26
			c0.72,0.42,1.6,0.64,2.66,0.64c2.26,0,4.8-0.81,7.65-2.42c2.84-1.61,5.45-3.65,7.82-6.11l2.42-2.5c0.06-0.06,0.13-0.09,0.22-0.09
			c0.06,0,0.09,0.01,0.11,0.02c0.01,0.02,0.02,0.04,0.02,0.07l-0.04,0.26l-2.37,2.42c-2.58,2.67-5.32,4.81-8.24,6.44
			c-2.92,1.63-5.52,2.44-7.8,2.44C166.03,94.87,164.47,93.51,164.47,90.87z M177.85,83.45c0.98-0.44,1.86-0.93,2.64-1.47
			c0.78-0.54,1.38-1,1.82-1.38c0.44-0.32,0.99-0.86,1.65-1.63c0.66-0.76,0.99-1.52,0.99-2.29c0-0.41-0.16-0.77-0.48-1.08
			c-0.32-0.31-0.79-0.46-1.41-0.46c-1.41,0-3.16,0.62-5.25,1.85c-2.09,1.23-3.87,2.5-5.34,3.82c-0.21,0.5-0.31,0.94-0.31,1.32
			c0,0.47,0.17,0.92,0.51,1.34c0.34,0.42,1.06,0.64,2.18,0.64C175.87,84.11,176.87,83.89,177.85,83.45z"/>
		<path d="M182.09,94.96c1.47-1.52,3.96-4.17,7.47-7.95c2.14-2.29,3.94-4.11,5.41-5.47c1.46-1.36,2.56-2.45,3.3-3.25
			c0.73-0.81,1.1-1.52,1.1-2.13c-0.06-0.62-0.47-0.92-1.23-0.92c-0.7,0-1.47,0.26-2.31,0.77c-0.83,0.51-1.64,1.11-2.42,1.78
			c-0.78,0.67-1.43,1.26-1.96,1.76c-1.32,1.29-2.74,2.71-4.26,4.26l-0.18,0.09c-0.12-0.06-0.18-0.15-0.18-0.26
			c0.76-0.85,2.21-2.3,4.35-4.35c0.53-0.53,1.19-1.14,2-1.85c0.81-0.7,1.66-1.33,2.57-1.87c0.91-0.54,1.77-0.81,2.59-0.81
			c0.47,0,0.87,0.12,1.21,0.35c0.34,0.23,0.51,0.63,0.51,1.19c0,1-0.45,2.15-1.36,3.45c-0.91,1.3-2.21,2.83-3.91,4.59
			c-1.7,1.76-3.72,3.82-6.06,6.2c3.25-2.61,5.93-4.55,8.02-5.82c2.09-1.27,3.9-2.4,5.43-3.36l0.31-0.53
			c0.26-0.56,0.64-1.18,1.12-1.87c0.48-0.69,1.03-1.35,1.63-2c0.6-0.64,1.22-1.18,1.85-1.6c0.63-0.42,1.22-0.64,1.78-0.64
			c0.53,0.03,0.79,0.28,0.79,0.75c0,0.29-0.11,0.64-0.33,1.03s-0.58,0.84-1.08,1.34c-0.97,0.94-2.12,1.81-3.45,2.61
			c-1.33,0.81-2.09,1.24-2.26,1.3c-0.64,1.35-0.97,2.64-0.97,3.87c0,0.67,0.15,1.23,0.44,1.67c0.29,0.44,0.78,0.66,1.45,0.66
			c0.79,0,1.59-0.26,2.4-0.79c0.81-0.53,1.58-1.14,2.33-1.85s1.43-1.35,2.04-1.93c0.06-0.06,0.13-0.09,0.22-0.09
			c0.12,0,0.18,0.07,0.18,0.22c-0.67,0.67-1.41,1.38-2.22,2.13c-0.81,0.75-1.64,1.39-2.5,1.93c-0.86,0.54-1.71,0.81-2.53,0.81
			c-0.82,0-1.41-0.25-1.76-0.75c-0.35-0.5-0.53-1.14-0.53-1.93c0-1.11,0.26-2.34,0.79-3.69c-5.24,3.16-9.01,5.69-11.29,7.58
			s-4.16,3.68-5.62,5.38H182.09z"/>
		<path d="M209.21,93.12c0-1.35,0.72-2.92,2.15-4.7c1.44-1.79,3.05-3.54,4.83-5.25c1.79-1.71,3.32-3.19,4.61-4.42
			c0.44-0.47,0.8-0.94,1.08-1.43c0.28-0.48,0.42-0.9,0.42-1.25c-0.06-0.59-0.44-0.88-1.14-0.88c-0.73,0-1.52,0.26-2.35,0.77
			c-0.83,0.51-1.63,1.11-2.4,1.78c-0.76,0.67-1.41,1.26-1.93,1.76c-1.35,1.32-2.77,2.74-4.26,4.26c-0.03,0.06-0.09,0.09-0.18,0.09
			c-0.15,0.03-0.22-0.03-0.22-0.18c0-0.09,0.04-0.15,0.13-0.18c1.46-1.52,2.89-2.94,4.26-4.26c0.53-0.53,1.19-1.14,2-1.85
			c0.81-0.7,1.66-1.33,2.57-1.87c0.91-0.54,1.77-0.81,2.59-0.81c0.44,0,0.83,0.12,1.19,0.35c0.35,0.23,0.53,0.63,0.53,1.19
			c0,0.15-0.02,0.3-0.04,0.46c-0.03,0.16-0.07,0.34-0.13,0.53c-0.06,0.19-0.12,0.39-0.2,0.59c-0.07,0.21-0.15,0.42-0.24,0.66
			c-0.73,1.32-1.77,2.68-3.1,4.09c-1.33,1.41-2.72,2.78-4.15,4.11c-1.44,1.33-2.67,2.58-3.69,3.74c-1.03,1.16-1.54,2.13-1.54,2.92
			c0,0.38,0.12,0.67,0.37,0.88c0.25,0.21,0.56,0.31,0.94,0.31c0.82,0,1.79-0.37,2.92-1.12c1.13-0.75,2.21-1.58,3.25-2.5
			c1.04-0.92,1.87-1.69,2.48-2.31c1.67-1.7,3.35-3.44,5.05-5.23c0.06-0.06,0.13-0.09,0.22-0.09s0.13,0.06,0.13,0.18
			c0,0.09-0.03,0.15-0.09,0.18l-5.01,5.23c-0.64,0.64-1.49,1.44-2.55,2.4c-1.05,0.95-2.17,1.81-3.34,2.57
			c-1.17,0.76-2.24,1.14-3.21,1.14C209.87,94.9,209.21,94.29,209.21,93.12z M223.31,73.76c-0.03-0.01-0.04-0.05-0.04-0.11l0.13-0.18
			c2.46-1.82,4.42-3.18,5.89-4.09c1.46-0.91,2.53-1.36,3.21-1.36c0.18,0,0.28,0.04,0.31,0.13c0,0.44-0.78,1.11-2.33,2
			c-1.55,0.89-3.87,2.09-6.94,3.58l-0.09,0.04C223.39,73.78,223.34,73.77,223.31,73.76z"/>
		<path d="M232.52,94.94c-0.13-0.02-0.26-0.04-0.37-0.09c-0.12-0.04-0.22-0.09-0.31-0.15c-0.09-0.06-0.16-0.12-0.22-0.2
			c-0.06-0.07-0.11-0.15-0.15-0.22c-0.04-0.07-0.07-0.16-0.09-0.26c-0.02-0.1-0.02-0.21-0.02-0.33c0-0.53,0.18-1.15,0.53-1.87
			c0.35-0.72,0.76-1.41,1.23-2.07c0.47-0.66,1.05-1.44,1.76-2.35c-0.88,0.85-1.83,1.71-2.86,2.57c-1.03,0.86-2.07,1.68-3.14,2.44
			c-1.07,0.76-2.1,1.38-3.1,1.85c-1,0.47-1.9,0.7-2.72,0.7c-0.88,0-1.53-0.26-1.96-0.79c-0.42-0.53-0.64-1.2-0.64-2.02
			c0-1.61,0.65-3.48,1.96-5.6c1.3-2.12,2.67-3.89,4.11-5.3c2.31-2.17,4.69-3.8,7.14-4.9c2.45-1.1,4.59-1.65,6.44-1.65
			c0.76,0,1.41,0.17,1.93,0.51c0.53,0.34,0.79,0.92,0.79,1.74c0,0.32-0.04,0.67-0.13,1.05c-0.09,0.38-0.26,0.82-0.53,1.32l4.09-4.17
			h2.68c-3.4,3.16-6.19,5.84-8.37,8.04c-2.18,2.2-4.12,4.31-5.82,6.33c-1.7,2.02-2.55,3.46-2.55,4.31c-0.03,0.47,0.26,0.7,0.88,0.7
			c0.7,0,1.57-0.36,2.61-1.08c1.04-0.72,2.17-1.64,3.38-2.77c1.22-1.13,2.45-2.34,3.69-3.63c1.25-1.29,2.42-2.52,3.54-3.69
			c0.03-0.06,0.09-0.09,0.18-0.09c0.12,0.06,0.18,0.13,0.18,0.22c0,0.03-0.03,0.07-0.09,0.13c-1.73,1.88-3.45,3.67-5.16,5.38
			s-3.3,3.14-4.77,4.26c-1.47,1.13-2.68,1.69-3.65,1.69C232.81,94.96,232.65,94.95,232.52,94.94z M227.91,92.54
			c1.83-1.26,3.71-2.78,5.65-4.55c1.93-1.77,3.71-3.49,5.32-5.16c0.29-0.2,1.08-1.04,2.37-2.5c0.41-0.79,0.7-1.46,0.86-2
			c0.16-0.54,0.24-0.97,0.24-1.3c0-0.82-0.26-1.34-0.77-1.56c-0.51-0.22-1.05-0.33-1.6-0.33c-1.26,0-2.64,0.4-4.13,1.21
			c-1.49,0.81-2.94,1.77-4.33,2.88c-1.39,1.11-2.6,2.18-3.63,3.21c-1,1.03-1.9,2.04-2.7,3.03c-0.81,1-1.49,1.95-2.07,2.86
			c-0.57,0.91-1,1.74-1.3,2.48c-0.29,0.75-0.44,1.38-0.44,1.91c0,0.62,0.18,1.05,0.55,1.32c0.37,0.26,0.81,0.4,1.34,0.4
			C224.53,94.43,226.08,93.8,227.91,92.54z"/>
	</g>
</g>
</svg>
