<?xml version="1.0" encoding="utf-8"?>
<!-- Generator: Adobe Illustrator 28.1.0, SVG Export Plug-In . SVG Version: 6.00 Build 0)  -->
<svg version="1.1" id="Capa_1" xmlns="http://www.w3.org/2000/svg" xmlns:xlink="http://www.w3.org/1999/xlink" x="0px" y="0px"
	 viewBox="0 0 535.18 161.5" style="enable-background:new 0 0 535.18 161.5;" xml:space="preserve">
<style type="text/css">
	.st0{fill:#1D1D1B;}
</style>
<g>
	<g>
		<path class="st0" d="M89.24,70.93c0.74,0,2.38,0.17,3.64,0.17c0.17,0,0.32,0.14,0.8,0.77c2.28,2.94,11.83,13.76,15.23,17.54
			c0.04,0.03,0.21,0.1,0.21-0.28c0-1.4-0.14-11.73-0.18-14.91c0-2.1-0.7-2.42-1.79-2.7c-0.42-0.1-0.67-0.17-0.67-0.31
			c0-0.17,0.32-0.21,0.7-0.21c0.63,0,1.54,0.1,2.35,0.1c1.05,0,1.82-0.1,2.21-0.1c0.35,0,0.56,0.04,0.56,0.18
			c0,0.17-0.31,0.24-0.59,0.35c-1.37,0.46-1.4,1.19-1.54,2.1c-0.14,1.05-0.21,8.89-0.21,12.18c0,3.22-0.07,5.25,0,7.11
			c0.04,0.7,0.04,1.05-0.21,1.05c-0.14,0-0.56-0.52-1.19-1.29c-2.21-2.7-11.1-12.88-16-18.62c-0.17-0.21-0.28-0.18-0.28,0.07
			c0,1.4-0.11,13.06-0.11,14.56c0,1.54,0.11,2.38,0.38,2.98c0.28,0.63,1.23,0.98,1.72,1.12c0.38,0.1,0.63,0.17,0.63,0.38
			c0,0.18-0.32,0.21-0.67,0.21c-0.59,0-1.54-0.17-2.66-0.17c-1.08,0-2.17,0.17-2.42,0.17c-0.53,0-0.6-0.1-0.6-0.21
			c0-0.17,0.28-0.25,0.67-0.35c1.37-0.38,1.68-0.73,1.86-2.77c0.11-1.26,0.38-13.16,0.38-15.33c0-2.07-0.31-2.31-0.63-2.56
			c-0.46-0.35-0.88-0.53-1.71-0.67c-0.49-0.07-0.67-0.14-0.67-0.31C88.47,71.04,88.64,70.93,89.24,70.93z"/>
		<path class="st0" d="M121.05,71.04c0.38,0,0.52,0.07,0.52,0.17c0,0.18-0.25,0.28-0.52,0.35c-1.93,0.28-1.79,1.72-1.79,3.4
			c-0.07,3.36-0.07,8.44,0,9.8c0.07,2.31,0.7,4.45,1.96,5.71c1.29,1.33,3.25,2,5.08,2c4.2,0,6.79-2.1,7.04-8.89
			c0.07-1.29,0.1-2.98,0.1-4.27c0-6.72-0.24-7.21-1.26-7.53l-0.84-0.21c-0.21-0.04-0.49-0.21-0.49-0.31c0-0.17,0.17-0.21,0.53-0.21
			c0.63,0,1.26,0.07,2.34,0.07c0.74,0,1.65-0.1,2.49-0.1c0.32,0,0.59,0.07,0.59,0.18c0,0.17-0.21,0.28-0.73,0.38
			c-1.37,0.25-1.44,0.98-1.51,2.56c-0.17,2.28-0.14,7.21-0.35,9.73c-0.25,2.59-0.53,5.5-2.56,7.67c-1.82,1.93-4.45,2.24-6.09,2.24
			c-1.75,0-3.92-0.46-5.39-1.61c-2.07-1.65-2.87-3.78-3.01-7.77c-0.1-2.45-0.04-8.47-0.17-10.54c-0.14-1.86-0.17-2-1.68-2.42
			c-0.1-0.03-0.35-0.14-0.35-0.31c0-0.14,0.28-0.14,0.63-0.14c0.63,0,1.61,0.14,2.77,0.14C119.27,71.11,120.35,71.04,121.05,71.04z"
			/>
		<path class="st0" d="M139.78,71c0.8,0,1.58,0.1,2.7,0.1c1.58,0,6.65-0.07,8.05-0.07c1.29,0,1.71-0.07,2.1-0.07
			c0.14,0,0.25,0.18,0.32,0.6c0.04,0.42,0.07,1.44,0.25,2.24c0.04,0.21,0,0.52-0.14,0.52c-0.11,0-0.18-0.1-0.35-0.49
			c-0.67-1.58-1.19-1.93-1.82-2.03c-0.95-0.18-6.23-0.18-7-0.1c-0.28,0.04-0.42,0.1-0.42,1.29v8.16c0,0.52,0.11,0.63,0.21,0.63h4.76
			c1.79,0,2.07-0.07,2.35-0.25c0.25-0.1,0.56-0.52,0.91-1.23c0.14-0.28,0.25-0.39,0.35-0.39c0.11,0,0.17,0.14,0.17,0.39
			c0,0.21-0.14,1.12-0.21,1.75c-0.07,0.7,0.04,1.68,0.07,1.89c0.1,0.53-0.14,0.74-0.21,0.74c-0.14,0-0.17-0.17-0.42-0.77
			c-0.11-0.31-0.35-0.88-0.84-1.05c-0.73-0.21-1.79-0.25-6.83-0.25c-0.32,0-0.32,0.04-0.32,0.81c0,1.75,0.11,6.55,0.11,7.21
			c0,0.38,0.25,1.26,0.95,1.61c0.59,0.32,1.08,0.39,3.61,0.39c3.36,0,3.82-0.1,4.45-0.67c0.31-0.28,0.88-1.12,1.22-1.61
			c0.35-0.49,0.49-0.63,0.63-0.63c0.14,0,0.18,0.21,0.04,0.63c-0.28,0.95-0.56,2.17-0.77,2.59c-0.11,0.21-0.25,0.39-0.46,0.39
			c-3.71,0-7.7-0.14-10.57-0.14c-1.16,0-2.98,0.17-3.36,0.17c-0.42,0-0.63-0.1-0.63-0.24c0-0.14,0.25-0.21,0.63-0.28
			c1.26-0.21,1.92-0.7,1.96-2.24c0.14-5.67,0.17-9.07,0.17-16.35c0-2.06-0.38-2.49-1.64-2.77c-0.35-0.07-0.49-0.18-0.49-0.31
			C139.29,71.11,139.49,71,139.78,71z"/>
		<path class="st0" d="M168.76,71.07c0.18,0.07,0.25,0.28,0.25,0.38c0,0.95,0.11,1.93,0.14,2.28c0.07,0.49-0.07,0.7-0.18,0.7
			c-0.14,0-0.24-0.14-0.31-0.53c-0.21-0.91-0.59-1.65-1.26-2.06c-0.81-0.6-1.96-0.84-2.87-0.84c-1.61,0-4.13,1.54-4.13,4.52
			c0,2.1,1.43,3.4,2.62,4.2c1.44,0.95,2.56,1.79,3.64,2.59c1.26,0.91,3.15,2.49,3.15,5.36c0,3.82-3.61,6.16-7.14,6.16
			c-1.4,0-3.54-0.38-4.62-0.98c-0.46-0.25-0.56-0.46-0.67-1.05c-0.07-0.59-0.28-1.5-0.31-2.38c-0.04-0.28,0-0.6,0.17-0.6
			c0.14,0,0.25,0.18,0.38,0.67c0.63,2.66,2.87,3.75,5.11,3.75c2.91,0,4.76-2.45,4.76-4.76c0-2.59-1.79-3.85-4.38-5.6
			c-2.38-1.61-4.66-3.54-4.66-6.48c0-2.03,0.81-3.43,2.21-4.52c0.91-0.73,2.48-1.4,4.41-1.4C166.55,70.48,168.23,70.93,168.76,71.07
			z"/>
		<path class="st0" d="M188.08,71.07c0.95,0,1.61-0.07,2.21-0.39c0.14-0.1,0.25-0.1,0.28-0.04c0.03,0.1,0.03,0.18,0,0.42
			c-0.11,0.42-0.11,1.26-0.11,2.52c0,0.52-0.14,0.81-0.28,0.81c-0.14,0-0.21-0.31-0.25-0.53c-0.07-0.63-0.31-1.29-0.59-1.57
			c-0.31-0.28-0.7-0.35-3.46-0.35c-0.95,0-2.8,0-3.4,0.07c-0.17,0.04-0.21,0.28-0.21,0.49c0,1.26-0.04,9.21-0.04,10.61
			c-0.04,2,0.1,6.76,0.21,7.84c0.14,1.29,0.49,1.51,1.65,1.85c0.42,0.1,0.59,0.18,0.59,0.35c0,0.21-0.25,0.25-0.7,0.25
			c-0.84,0-1.68-0.21-2.94-0.21c-1.54,0-2.59,0.21-3.15,0.21c-0.46,0-0.63-0.14-0.63-0.31c0-0.14,0.35-0.25,0.74-0.31
			c1.64-0.21,1.85-0.81,1.96-2.42c0.25-3.33,0.25-17.4,0.17-17.92c-0.04-0.31-0.14-0.42-0.25-0.46c-0.21-0.03-1.01-0.1-2.62-0.1
			c-1.58,0-2.45,0.07-3.25,0.18c-0.63,0.1-1.05,0.52-1.54,1.89c-0.14,0.35-0.35,0.56-0.46,0.56c-0.14,0-0.14-0.31-0.1-0.52
			c0.17-1.02,0.49-2.07,0.49-2.94c0-0.31,0-0.46,0.14-0.53c0.07-0.03,0.21,0.04,0.28,0.14c0.14,0.18,0.7,0.31,1.16,0.35
			c0.59,0.04,3.92,0.1,7.53,0.1L188.08,71.07z"/>
		<path class="st0" d="M204.63,72.16c1.51,1.08,2.17,2.66,2.17,4.2c0,2.35-1.19,3.36-2,3.99c-0.6,0.52-1.58,0.94-2.14,1.15
			c-0.14,0.07-0.07,0.32,0.07,0.67c0.7,1.37,2.98,4.94,3.96,6.27c1.08,1.47,1.82,2.35,2.56,3.08c1.12,1.12,2.13,1.44,2.77,1.44
			c0.28,0,0.46,0.1,0.46,0.21c0,0.07-0.14,0.18-0.42,0.28c-0.28,0.1-0.84,0.14-1.33,0.14c-2.13,0-3.54-1.16-4.83-2.77
			c-1.79-2.27-4.73-7.11-5.22-7.7c-0.35-0.39-0.67-0.7-1.08-0.81c-0.35-0.1-0.84-0.17-1.75-0.14c-0.17,0-0.32,0.14-0.35,0.28
			c-0.07,0.35-0.1,4.83-0.07,6.23c0.04,1.61,0.17,2.87,0.28,3.19c0.14,0.42,0.39,0.77,1.65,0.98c0.38,0.07,0.53,0.14,0.53,0.28
			c0,0.14-0.28,0.24-0.7,0.24c-0.74,0-1.4-0.17-2.59-0.17c-1.29,0-2.31,0.17-2.97,0.17c-0.35,0-0.6-0.07-0.6-0.24
			c0-0.14,0.25-0.21,0.7-0.32c1.08-0.21,1.47-0.52,1.58-2c0.11-2,0.17-4.62,0.17-9.7c0-4.9-0.14-6.76-0.21-7.88
			c-0.07-1.02-0.14-1.5-1.61-1.75c-0.32-0.07-0.6-0.14-0.6-0.31c0-0.1,0.17-0.21,0.63-0.21c0.49,0,1.33,0.14,2.59,0.14
			c1.29,0,2.59-0.17,3.75-0.17C202.11,70.93,203.48,71.32,204.63,72.16z M197.66,71.7c-0.07,0.04-0.18,0.04-0.21,0.6
			c-0.04,0.7-0.04,8.12-0.04,8.68c0,0.52,0.14,0.63,0.25,0.63c0.21,0.04,0.67,0.04,0.94,0.04c1.02,0,3.19-0.28,3.89-0.73
			c0.98-0.7,2.1-2.14,2.1-4.03c0-1.86-0.56-3.19-1.47-4.03c-0.95-0.88-2.21-1.4-4.31-1.4C198.36,71.46,197.84,71.6,197.66,71.7z"/>
		<path class="st0" d="M229.97,88.41c0.06-0.28,0.14-0.55,0.24-0.82c-1.79-4.2-3.19-7.64-5.46-13.71c-0.49-1.23-0.84-2.1-0.98-3.01
			c-0.07-0.21-0.14-0.28-0.25-0.28c-0.14,0-0.17,0.21-0.21,0.35c-0.14,0.88-0.77,1.5-0.98,1.75c-0.04,0.04-0.1,0.25-0.1,0.39
			c0,0.31-0.04,0.56-0.21,1.02c-2.17,5.39-5.32,13.2-6.27,15.19c-1.37,2.98-1.58,3.22-3.19,3.54c-0.35,0.07-0.7,0.14-0.7,0.32
			c0,0.17,0.21,0.24,0.59,0.24c0.74,0,1.33-0.17,2.21-0.17c1.29,0,2.8,0.17,3.46,0.17c0.35,0,0.67-0.07,0.67-0.24
			c0-0.1-0.17-0.25-0.53-0.32c-0.67-0.14-1.15-0.28-1.43-0.56c-0.38-0.38-0.42-1.01,0-2.45c0.56-1.89,1.61-4.55,1.92-5.25
			c0.11-0.25,0.39-0.7,0.49-0.7c0.77-0.03,5.57,0,6.86-0.1c0.11,0,0.32,0.21,0.42,0.42c1.29,3.4,2.55,6.62,2.55,7.04
			c0,0.67-0.04,1.37-1.61,1.58c-0.31,0.03-0.67,0.17-0.67,0.31s0.21,0.25,0.56,0.25c0.41,0,1.04-0.04,1.68-0.08
			c0.03-0.2,0.09-0.4,0.14-0.59c0.05-0.51,0.18-1.02,0.37-1.49C229.47,90.23,229.61,89.27,229.97,88.41z M225.77,82.66
			c-0.42,0.14-2.07,0.14-3.26,0.14c-1.33,0-2.24,0-2.8-0.04c-0.17,0-0.14-0.31-0.11-0.31c0.49-1.47,1.89-5.36,2.87-7.74
			c0.1-0.25,0.17-0.35,0.28-0.1c0.6,1.44,1.44,3.29,3.01,7.7C225.81,82.45,225.74,82.66,225.77,82.66z"/>
	</g>
	<g>
		<path d="M297.12,108.57c-0.79-0.67-1.42-1.68-1.89-3.01c-0.47-1.33-0.7-3-0.7-4.99c0-3.22,0.4-6.43,1.19-9.62s1.75-6.2,2.88-9.03
			c1.13-2.83,2.26-5.33,3.41-7.51c1.14-2.18,2.5-4.53,4.09-7.05c-2.08-1.93-4.34-3.32-6.77-4.17c-2.43-0.85-4.86-1.3-7.29-1.36
			c-3.69,4.6-6.53,7.98-8.53,10.15c-6.53,6.97-13.65,13.34-21.36,19.12c0.44,2.87,1.54,5.49,3.3,7.87c0.91,1.26,1.94,2.45,3.1,3.58
			c1.16,1.13,2.57,2.1,4.24,2.92l0.09,0.18c-0.09,0.15-0.21,0.22-0.35,0.22c-6.62-3.31-10.33-8.06-11.12-14.24
			c-2.84,2.05-5.62,3.9-8.33,5.54c-2.71,1.64-5.35,2.95-7.91,3.93c-2.56,0.98-5.06,1.47-7.49,1.47c-2.14,0-4.13-0.48-5.98-1.45
			c-1.05-0.64-1.81-1.51-2.26-2.59c-0.46-1.08-0.68-2.34-0.68-3.78c0-2.96,0.62-6.04,1.85-9.25s2.75-6.23,4.57-9.07
			c1.82-2.84,3.65-5.23,5.49-7.16c2.37-2.46,5.32-4.92,8.83-7.38c3.52-2.46,7.02-4.55,10.5-6.26s6.25-2.57,8.31-2.57
			c1.23,0,2.26,0.29,3.1,0.88c0.84,0.59,1.25,1.58,1.25,2.99c0,0.97-0.22,2.15-0.66,3.56s-1.03,2.9-1.78,4.48
			c-0.75,1.58-1.6,3.11-2.55,4.57c-0.95,1.47-1.96,2.74-3.01,3.82c-1.61,1.67-3.52,3.25-5.74,4.75s-4.41,2.72-6.59,3.69
			s-3.98,1.45-5.38,1.45c-0.85,0-1.58-0.27-2.18-0.81c-0.6-0.54-0.9-1.4-0.9-2.57c0-1.17,0.39-2.64,1.16-4.39s2.18-3.87,4.2-6.33
			c0.09-0.06,0.18-0.09,0.26-0.09c0.06,0,0.09,0.01,0.11,0.02c0.01,0.02,0.02,0.08,0.02,0.2l-0.04,0.09
			c-1.35,1.61-2.41,3.06-3.19,4.35c-0.78,1.29-1.32,2.44-1.63,3.45c-0.31,1.01-0.46,1.87-0.46,2.57c0,1.05,0.27,1.83,0.81,2.33
			c0.54,0.5,1.18,0.75,1.91,0.75c0.53,0,1.08-0.07,1.67-0.22c0.59-0.15,1.21-0.36,1.87-0.64c0.66-0.28,1.36-0.61,2.09-0.99
			c4.48-2.49,8.17-5.27,11.05-8.35c2.88-3.08,5.02-6.04,6.42-8.88c1.39-2.84,2.09-5.07,2.09-6.68c0-1.29-0.39-2.2-1.17-2.75
			c-0.78-0.54-1.76-0.81-2.97-0.81c-1.93,0-4.15,0.62-6.66,1.85c-2.51,1.23-5.03,2.74-7.58,4.53c-2.55,1.79-4.88,3.58-6.99,5.38
			c-2.11,1.8-3.75,3.33-4.92,4.59c-1.79,1.88-3.65,4.3-5.58,7.27c-1.93,2.97-3.6,6.09-4.99,9.34c-1.39,3.25-2.09,6.15-2.09,8.7
			c0,1.23,0.21,2.33,0.64,3.3s1.11,1.73,2.04,2.29c1.73,0.97,3.65,1.45,5.76,1.45c3.31,0,6.99-1.08,11.03-3.23s8.23-5.03,12.57-8.64
			l-0.04-1.01c0-3.57,1.08-7.41,3.25-11.51c1.46-2.7,3.49-5.32,6.06-7.89c2.58-2.56,5.58-4.71,9.01-6.44
			c3.43-1.73,7.16-2.7,11.21-2.9l6.06-7.08c3.49-4.13,6.83-7.79,10.02-10.96c3.19-3.18,6.2-5.84,9.01-7.98
			c2.81-2.14,5.41-3.71,7.78-4.7c-3.87-0.12-8.01-0.78-12.44-2c-4.42-1.22-10.17-2.44-17.23-3.67c-2.11-0.35-4.29-0.53-6.55-0.53
			c-2.99,0-5.98,0.38-8.96,1.14c-4.75,1.47-8.34,3.7-10.79,6.7c-2.45,3-3.67,6.09-3.67,9.25c0,1.64,0.19,3.13,0.57,4.46
			c0.38,1.33,0.95,2.79,1.71,4.37l0.04,0.13c-0.06,0.15-0.16,0.22-0.31,0.22c-0.03,0-0.07-0.01-0.13-0.04
			c-0.85-1.44-1.48-2.79-1.89-4.06s-0.62-2.75-0.62-4.42c0-1.14,0.15-2.34,0.46-3.6c0.31-1.26,0.83-2.53,1.56-3.82
			c1.7-2.84,3.74-5.11,6.13-6.81c2.39-1.7,4.96-2.91,7.71-3.63c2.75-0.72,5.45-1.08,8.09-1.08c2.2,0,4.48,0.22,6.86,0.66
			c5.07,1,9.28,1.97,12.63,2.92c3.35,0.95,6.36,1.75,9.03,2.4c2.67,0.64,5.61,0.97,8.83,0.97c1.17-0.44,2.34-0.76,3.49-0.97
			c1.16-0.2,1.94-0.32,2.35-0.35c0.18-0.03,0.26,0.03,0.26,0.18c0,0.09-0.01,0.13-0.02,0.13s-0.04,0.04-0.07,0.13
			c-0.29,0.21-0.79,0.44-1.49,0.7s-2.21,0.45-4.53,0.57c-1.14,0.44-2.36,1.03-3.65,1.76c-1.29,0.73-2.64,1.61-4.04,2.64
			c-3.16,2.43-6.94,6.18-11.34,11.25c-4.39,5.07-8.63,10.12-12.7,15.16c2.29,0.09,4.62,0.57,7.01,1.45
			c2.39,0.88,4.64,2.33,6.75,4.35c2.99-4.04,5.88-7.59,8.68-10.63c2.8-3.05,6.16-6.17,10.09-9.36c3.13-2.49,6.17-4.69,9.12-6.61
			c2.94-1.92,5.73-3.6,8.37-5.03c2.64-1.44,5.05-2.64,7.23-3.6c2.18-0.97,4.07-1.75,5.65-2.35c1.58-0.6,3.25-1.16,5.01-1.69
			c0.09,0,0.18,0.06,0.26,0.18c-0.03,0.12-0.12,0.21-0.26,0.26c-3.98,1.29-7.66,2.72-11.03,4.28c-3.37,1.57-7.18,3.72-11.43,6.46
			c-4.25,2.74-8.68,6.17-13.29,10.28c-4.62,4.12-9.13,9.06-13.56,14.83c-1.26,1.61-2.4,3.19-3.43,4.75
			c3.16,4.19,4.75,9.71,4.75,16.57c0,2.58-0.28,5.23-0.83,7.95c-0.7,3.22-1.72,6.1-3.05,8.64c-1.33,2.53-2.81,4.55-4.44,6.04
			c-1.63,1.49-3.22,2.24-4.77,2.24C298.81,109.58,297.91,109.25,297.12,108.57z M275.85,76.76c4.69-4.8,9.27-9.78,13.75-14.94
			c-5.71,0.47-10.73,2.29-15.05,5.45s-7.54,6.71-9.65,10.63c-1.99,3.69-2.99,7.29-2.99,10.81l0.04,1.01
			C266.54,85.88,271.16,81.56,275.85,76.76z M306.55,104.51c2.3-3.12,3.99-7.07,5.08-11.84c0.53-2.58,0.79-5.08,0.79-7.51
			c0-6.5-1.63-11.88-4.88-16.13c-1.55,2.29-2.94,4.48-4.17,6.59s-2.31,4.14-3.23,6.09c-0.92,1.95-1.71,3.8-2.37,5.56
			c-0.66,1.76-1.19,3.43-1.6,5.01s-0.71,3.05-0.9,4.42c-0.19,1.36-0.29,2.63-0.29,3.8c0,2.81,0.47,4.97,1.41,6.46
			s2.11,2.24,3.52,2.24C302.03,109.19,304.25,107.63,306.55,104.51z M329.51,28.64c-0.64,0.06-1.7,0.28-3.16,0.66
			C327.46,29.21,328.51,28.99,329.51,28.64z"/>
		<path d="M317.51,92.01c0-1.35,0.7-2.9,2.11-4.66s3-3.5,4.79-5.23c1.79-1.73,3.34-3.24,4.66-4.53c1.05-1.08,1.58-1.98,1.58-2.68
			c-0.06-0.59-0.47-0.88-1.23-0.88c-0.7,0-1.47,0.26-2.31,0.77c-0.83,0.51-1.64,1.11-2.42,1.78c-0.78,0.67-1.43,1.26-1.96,1.76
			c-1.35,1.32-2.75,2.74-4.22,4.26c-0.06,0.06-0.13,0.09-0.22,0.09c-0.09,0.03-0.13-0.03-0.13-0.18l0.04-0.18
			c1.46-1.52,2.89-2.94,4.26-4.26c0.53-0.53,1.2-1.14,2.02-1.85s1.68-1.33,2.59-1.87c0.91-0.54,1.76-0.81,2.55-0.81
			c0.47,0,0.88,0.12,1.23,0.37c0.35,0.25,0.53,0.67,0.53,1.25c0,0.62-0.22,1.33-0.66,2.15c-0.7,1.32-1.73,2.68-3.08,4.09
			s-2.74,2.78-4.17,4.11c-1.44,1.33-2.67,2.58-3.69,3.74c-1.03,1.16-1.54,2.13-1.54,2.92c0.12,0.79,0.57,1.19,1.36,1.19
			c0.62,0,1.33-0.23,2.13-0.68c0.81-0.45,1.62-1,2.44-1.65c0.82-0.64,1.59-1.3,2.31-1.96s1.3-1.21,1.74-1.65
			c1.67-1.7,3.37-3.44,5.1-5.23c0.03-0.06,0.09-0.09,0.18-0.09c0.12,0,0.18,0.07,0.18,0.22c-1.7,1.67-3.41,3.46-5.14,5.36
			c-0.62,0.64-1.45,1.44-2.5,2.4c-1.05,0.95-2.18,1.81-3.36,2.57c-1.19,0.76-2.26,1.14-3.23,1.14
			C318.16,93.75,317.51,93.15,317.51,92.01z M336.1,69.2c0-0.73,0.37-1.45,1.12-2.15c0.75-0.7,1.37-1.05,1.87-1.05
			c0.23,0.03,0.42,0.08,0.55,0.15c0.13,0.07,0.2,0.24,0.2,0.51c0,0.29-0.12,0.62-0.35,0.99c-0.23,0.37-0.52,0.72-0.86,1.05
			c-0.34,0.34-0.69,0.61-1.05,0.81c-0.37,0.21-0.68,0.31-0.94,0.31C336.28,69.73,336.1,69.52,336.1,69.2z"/>
		<path d="M332.1,93.92c-1.2-0.4-2.17-1.03-2.9-1.91c-0.47-0.53-0.81-1.14-1.03-1.85c-0.22-0.7-0.33-1.42-0.33-2.15
			c0-0.5,0.1-1.13,0.29-1.89c0.19-0.76,0.49-1.45,0.9-2.07s0.92-0.92,1.54-0.92c0.47,0.03,0.7,0.42,0.7,1.19
			c0,0.76-0.14,1.52-0.42,2.26c-0.28,0.75-0.56,1.47-0.86,2.18s-0.44,1.35-0.44,1.93c0,0.64,0.24,1.2,0.73,1.67
			c0.48,0.47,1.35,0.7,2.61,0.7c0.85,0,1.78-0.21,2.79-0.64c1.01-0.42,1.96-1.21,2.86-2.35c0.89-1.14,1.62-2.75,2.17-4.83
			c1.03-4.22,2.55-7.63,4.57-10.24c-4.66,1.44-8.57,3.97-11.73,7.6l-0.22,0.09c-0.09,0-0.13-0.04-0.13-0.13l0.04-0.22
			c1.46-1.73,3.16-3.22,5.1-4.48c1.93-1.26,4.45-2.43,7.56-3.52c0.97-1.08,2-1.99,3.1-2.72c1.1-0.73,2.19-1.1,3.27-1.1
			c0.35,0,0.64,0.06,0.86,0.18c0.22,0.12,0.33,0.28,0.33,0.48c0,0.35-0.31,0.71-0.92,1.08c-0.62,0.37-1.27,0.68-1.96,0.94
			c-0.69,0.26-1.18,0.44-1.47,0.53l-2.81,0.88c-1.29,1.44-2.07,3.31-2.35,5.62c-0.28,2.31-0.83,4.67-1.65,7.08
			c-0.73,1.64-1.61,2.92-2.64,3.82c-1.03,0.91-2.1,1.53-3.23,1.87c-1.13,0.34-2.18,0.51-3.14,0.51c-0.53,0-1-0.03-1.41-0.09
			c1.29,0.47,2.59,0.7,3.91,0.7c1.58,0,3.12-0.37,4.61-1.12s2.85-1.61,4.06-2.59c1.22-0.98,2.21-1.87,2.99-2.68
			c0.78-0.81,1.25-1.31,1.43-1.52l3.91-4c0.06-0.06,0.1-0.09,0.13-0.09c0.09,0,0.16,0.04,0.22,0.13c0,0.06-0.01,0.1-0.02,0.11
			c-0.02,0.02-0.04,0.05-0.07,0.11l-3.82,3.96c-0.18,0.21-0.66,0.73-1.45,1.56s-1.81,1.75-3.05,2.75c-1.25,1-2.64,1.88-4.2,2.64
			s-3.16,1.14-4.83,1.14C334.5,94.51,333.3,94.31,332.1,93.92z"/>
		<path d="M345.55,92.4c0-1.23,0.87-2.94,2.61-5.12c1.74-2.18,3.64-4.31,5.69-6.39c2.05-2.08,3.66-3.69,4.83-4.83l4.22-4.04h-3.52
			c-0.12-0.03-0.18-0.09-0.18-0.18c0.06-0.18,0.15-0.26,0.26-0.26h3.87l7.87-7.69h3.08l-8.26,7.69h3.3c0.12,0,0.18,0.07,0.18,0.22
			c-0.03,0.15-0.12,0.22-0.26,0.22h-3.65c-1.73,1.61-4.07,3.83-7.01,6.66c-2.95,2.83-5.66,5.6-8.13,8.33
			c-2.47,2.72-3.71,4.59-3.71,5.58c-0.03,0.53,0.29,0.79,0.97,0.79c0.85,0,1.93-0.49,3.25-1.47c1.32-0.98,2.82-2.31,4.5-4
			c1.68-1.68,3.49-3.58,5.43-5.69l0.22-0.09c0.09,0,0.15,0.04,0.18,0.13c0,0.09-0.03,0.16-0.09,0.22c-1.46,1.55-2.86,3-4.17,4.35
			c-1.32,1.35-2.55,2.55-3.69,3.6s-2.2,1.88-3.16,2.48c-0.97,0.6-1.83,0.9-2.59,0.9C346.22,93.75,345.55,93.28,345.55,92.4z"/>
		<path d="M358.49,92.6c-0.66-0.78-0.99-1.78-0.99-3.01c0-1.03,0.23-2.15,0.7-3.38s1.23-2.56,2.29-4c3.05-3.6,6.55-5.92,10.5-6.94
			c0.38-0.32,0.86-0.67,1.45-1.05c0.59-0.38,1.25-0.72,2-1.01c0.75-0.29,1.53-0.44,2.35-0.44c1.03,0,1.95,0.27,2.77,0.81
			c0.82,0.54,1.23,1.43,1.23,2.66c0,1.64-0.52,3.28-1.56,4.92c-1.04,1.64-2.26,3.16-3.65,4.57s-2.67,2.58-3.84,3.52
			c0.38,0.06,0.85,0.09,1.41,0.09c0.88,0,1.9-0.18,3.05-0.53s2.35-1,3.58-1.93c1.44-1.14,2.99-2.55,4.66-4.22
			c0.12-0.09,0.23-0.2,0.33-0.33c0.1-0.13,0.21-0.2,0.33-0.2s0.18,0.07,0.18,0.22c-2.49,2.4-4.17,3.97-5.05,4.7
			c-0.88,0.7-1.76,1.25-2.64,1.65s-1.71,0.67-2.48,0.83c-0.78,0.16-1.49,0.24-2.13,0.24s-1.2-0.06-1.67-0.18
			c-3.87,2.78-7.16,4.17-9.89,4.17C360.12,93.76,359.15,93.38,358.49,92.6z M365.79,92.23c1.62-0.7,3.26-1.64,4.9-2.81
			c-1-0.32-1.84-0.93-2.53-1.82c-0.69-0.89-1.03-2.12-1.03-3.67c0-1.87,0.59-3.85,1.76-5.93c-2.67,1.41-4.95,3.27-6.86,5.58
			c-2.26,3.05-3.38,5.46-3.38,7.25c0,1.64,0.95,2.46,2.86,2.46C362.73,93.28,364.16,92.93,365.79,92.23z M375.34,85.3
			c1.38-1.51,2.53-3.07,3.45-4.68c0.92-1.61,1.38-3.08,1.38-4.39c0-1.11-0.36-1.89-1.08-2.33s-1.56-0.66-2.53-0.66
			c-1,0-1.9,0.2-2.7,0.59c-0.81,0.4-1.47,0.8-2,1.21c0.41-0.09,0.78-0.15,1.1-0.18c0.32-0.03,0.63-0.04,0.92-0.04
			c0.59,0,1.04,0.05,1.36,0.15c0.32,0.1,0.62,0.26,0.88,0.46c-1.96,0.26-4.13,0.98-6.5,2.15c-0.7,0.94-1.22,1.95-1.56,3.03
			c-0.34,1.08-0.51,2.14-0.51,3.16c0,1.49,0.33,2.67,0.99,3.54c0.66,0.86,1.47,1.44,2.44,1.74c0.06,0.03,0.1,0.04,0.13,0.04
			C372.56,88.08,373.97,86.81,375.34,85.3z"/>
		<path d="M379.69,93.81c1.46-1.52,3.96-4.17,7.47-7.95c2.14-2.29,3.94-4.11,5.41-5.47s2.56-2.45,3.3-3.25
			c0.73-0.81,1.1-1.52,1.1-2.13c-0.06-0.62-0.47-0.92-1.23-0.92c-0.7,0-1.47,0.26-2.31,0.77c-0.83,0.51-1.64,1.11-2.42,1.78
			c-0.78,0.67-1.43,1.26-1.96,1.76c-1.32,1.29-2.74,2.71-4.26,4.26l-0.18,0.09c-0.12-0.06-0.18-0.15-0.18-0.26
			c0.76-0.85,2.21-2.3,4.35-4.35c0.53-0.53,1.19-1.14,2-1.85s1.66-1.33,2.57-1.87c0.91-0.54,1.77-0.81,2.59-0.81
			c0.47,0,0.87,0.12,1.21,0.35c0.34,0.23,0.5,0.63,0.5,1.19c0,1-0.45,2.15-1.36,3.45c-0.91,1.3-2.21,2.83-3.91,4.59
			s-3.72,3.82-6.06,6.2c3.25-2.61,5.92-4.55,8.02-5.82c2.09-1.27,3.9-2.4,5.43-3.36l0.31-0.53c0.26-0.56,0.64-1.18,1.12-1.87
			c0.48-0.69,1.02-1.35,1.62-2c0.6-0.64,1.22-1.18,1.85-1.6c0.63-0.42,1.22-0.64,1.78-0.64c0.53,0.03,0.79,0.28,0.79,0.75
			c0,0.29-0.11,0.64-0.33,1.03c-0.22,0.4-0.58,0.84-1.08,1.34c-0.97,0.94-2.12,1.81-3.45,2.61c-1.33,0.81-2.09,1.24-2.26,1.3
			c-0.64,1.35-0.97,2.64-0.97,3.87c0,0.67,0.15,1.23,0.44,1.67s0.78,0.66,1.45,0.66c0.79,0,1.59-0.26,2.39-0.79s1.58-1.14,2.33-1.85
			c0.75-0.7,1.43-1.35,2.04-1.93c0.06-0.06,0.13-0.09,0.22-0.09c0.12,0,0.18,0.07,0.18,0.22c-0.67,0.67-1.41,1.38-2.22,2.13
			s-1.64,1.39-2.5,1.93c-0.87,0.54-1.71,0.81-2.53,0.81s-1.41-0.25-1.76-0.75c-0.35-0.5-0.53-1.14-0.53-1.93
			c0-1.11,0.26-2.34,0.79-3.69c-5.24,3.16-9.01,5.69-11.29,7.58s-4.16,3.68-5.62,5.38H379.69z"/>
		<path d="M406.81,92.01c0-1.35,0.7-2.9,2.11-4.66s3-3.5,4.79-5.23c1.79-1.73,3.34-3.24,4.66-4.53c1.05-1.08,1.58-1.98,1.58-2.68
			c-0.06-0.59-0.47-0.88-1.23-0.88c-0.7,0-1.47,0.26-2.31,0.77c-0.83,0.51-1.64,1.11-2.42,1.78c-0.78,0.67-1.43,1.26-1.96,1.76
			c-1.35,1.32-2.75,2.74-4.22,4.26c-0.06,0.06-0.13,0.09-0.22,0.09c-0.09,0.03-0.13-0.03-0.13-0.18l0.04-0.18
			c1.46-1.52,2.89-2.94,4.26-4.26c0.53-0.53,1.2-1.14,2.02-1.85s1.68-1.33,2.59-1.87c0.91-0.54,1.76-0.81,2.55-0.81
			c0.47,0,0.88,0.12,1.23,0.37c0.35,0.25,0.53,0.67,0.53,1.25c0,0.62-0.22,1.33-0.66,2.15c-0.7,1.32-1.73,2.68-3.08,4.09
			s-2.74,2.78-4.17,4.11c-1.44,1.33-2.67,2.58-3.69,3.74c-1.03,1.16-1.54,2.13-1.54,2.92c0.12,0.79,0.57,1.19,1.36,1.19
			c0.62,0,1.33-0.23,2.13-0.68c0.81-0.45,1.62-1,2.44-1.65c0.82-0.64,1.59-1.3,2.31-1.96s1.3-1.21,1.74-1.65
			c1.67-1.7,3.37-3.44,5.1-5.23c0.03-0.06,0.09-0.09,0.18-0.09c0.12,0,0.18,0.07,0.18,0.22c-1.7,1.67-3.41,3.46-5.14,5.36
			c-0.62,0.64-1.45,1.44-2.5,2.4c-1.05,0.95-2.18,1.81-3.36,2.57c-1.19,0.76-2.26,1.14-3.23,1.14
			C407.45,93.75,406.81,93.15,406.81,92.01z M425.4,69.2c0-0.73,0.37-1.45,1.12-2.15c0.75-0.7,1.37-1.05,1.87-1.05
			c0.23,0.03,0.42,0.08,0.55,0.15c0.13,0.07,0.2,0.24,0.2,0.51c0,0.29-0.12,0.62-0.35,0.99c-0.23,0.37-0.52,0.72-0.86,1.05
			c-0.34,0.34-0.69,0.61-1.05,0.81c-0.37,0.21-0.68,0.31-0.94,0.31C425.57,69.73,425.4,69.52,425.4,69.2z"/>
		<path d="M430.3,93.79c-0.13-0.02-0.26-0.04-0.37-0.09s-0.22-0.09-0.31-0.15c-0.09-0.06-0.16-0.12-0.22-0.2
			c-0.06-0.07-0.11-0.15-0.15-0.22c-0.04-0.07-0.07-0.16-0.09-0.26c-0.02-0.1-0.02-0.21-0.02-0.33c0-0.53,0.18-1.15,0.53-1.87
			c0.35-0.72,0.76-1.41,1.23-2.07s1.05-1.44,1.76-2.35c-0.88,0.85-1.83,1.71-2.86,2.57c-1.03,0.86-2.07,1.68-3.14,2.44
			c-1.07,0.76-2.1,1.38-3.1,1.85c-1,0.47-1.9,0.7-2.72,0.7c-0.88,0-1.53-0.26-1.96-0.79s-0.64-1.2-0.64-2.02
			c0-1.61,0.65-3.48,1.96-5.6c1.3-2.12,2.67-3.89,4.11-5.3c2.31-2.17,4.69-3.8,7.14-4.9c2.45-1.1,4.59-1.65,6.44-1.65
			c0.76,0,1.41,0.17,1.93,0.51c0.53,0.34,0.79,0.92,0.79,1.74c0,0.32-0.04,0.67-0.13,1.05c-0.09,0.38-0.26,0.82-0.53,1.32l4.09-4.17
			h2.68c-3.4,3.16-6.19,5.84-8.37,8.04s-4.12,4.31-5.82,6.33s-2.55,3.46-2.55,4.31c-0.03,0.47,0.26,0.7,0.88,0.7
			c0.7,0,1.57-0.36,2.62-1.08c1.04-0.72,2.17-1.64,3.38-2.77c1.22-1.13,2.45-2.34,3.69-3.63c1.25-1.29,2.42-2.52,3.54-3.69
			c0.03-0.06,0.09-0.09,0.18-0.09c0.12,0.06,0.18,0.13,0.18,0.22c0,0.03-0.03,0.07-0.09,0.13c-1.73,1.88-3.45,3.67-5.16,5.38
			c-1.71,1.71-3.3,3.14-4.77,4.26c-1.46,1.13-2.68,1.69-3.65,1.69C430.58,93.81,430.43,93.8,430.3,93.79z M425.68,91.39
			c1.83-1.26,3.71-2.78,5.65-4.55c1.93-1.77,3.71-3.49,5.32-5.16c0.29-0.2,1.08-1.04,2.37-2.5c0.41-0.79,0.7-1.46,0.86-2
			c0.16-0.54,0.24-0.97,0.24-1.3c0-0.82-0.26-1.34-0.77-1.56c-0.51-0.22-1.05-0.33-1.6-0.33c-1.26,0-2.64,0.4-4.13,1.21
			c-1.49,0.81-2.94,1.77-4.33,2.88c-1.39,1.11-2.6,2.18-3.62,3.21c-1,1.03-1.9,2.04-2.7,3.03c-0.8,1-1.49,1.95-2.06,2.86
			c-0.57,0.91-1,1.74-1.3,2.48s-0.44,1.38-0.44,1.91c0,0.62,0.18,1.05,0.55,1.32c0.37,0.26,0.81,0.4,1.34,0.4
			C422.31,93.28,423.85,92.65,425.68,91.39z"/>
	</g>
</g>
</svg>
